# xmcd
#
# Track frame offsets:
#	225
#	15423
#	27918
#	42902
#	56285
#	69423
#	83519
#	97180
#	110104
#	123658
#	135986
#	150544
#	163451
#	174500
#	187323
#	200258
#	213144
#	227733
#	241291
#	252873
#	263692
#	277315
#	291463
#	305894
#	319076
#	331036
#	341248
#
# Disc length: 4673 seconds
#
# Revision: 1
# Processed by: cddbd v1.5.2PL0 Copyright (c) Steve Scherf et al.
# Submitted via: audiograbber 1.83.01
#
DISCID=93123e1b
DTITLE=Various Artist - 78 RPM R&B Vocal Groups - Vol. 2
DYEAR=1900
DGENRE=Vocal Harmony
TTITLE0=Ted Lewis and the Four Dusty Travelers - Dinah (Columbia, 1930)
TTITLE1=Charioteers - Sing a Song of Six Pence (Vocalion, 1938)
TTITLE2=Southern Sons - Parise the Lord and Pass the Ammunition (Bluebird, 1942
TTITLE2=)
TTITLE3=Herb Jeffries and the Three Shades of Rhythm - At Least You Could Save Me
TTITLE3=a Dream (Excelsior, 1944)
TTITLE4=Ginger Snaps - Juke Box Joe (RCA, 1945)
TTITLE5=Four Tones - Two Tears Met (Preview, 1945)
TTITLE6=Four Blues - Oh Daddy, Please Bring That Suitcase In (DeLuxe, 1945)
TTITLE7=Thelma Carpenter and the Deep River Boys - My Guy's Come Back (Majestic, 
TTITLE7=1945)
TTITLE8=Bill Samuels and the Cats 'n' Jammer Three - I Cover the Waterfront (Merc
TTITLE8=ury, 1946)
TTITLE9=Four Blue Jackets - Rock-a My Soul (Mercury, 1946)
TTITLE10=Do, Ray and Me - There's a Man At the Door (Commodore, 1947)
TTITLE11=Bill Johnson and his Musical Notes - You're the Dream Of a Lifetime (RCA
TTITLE11=, 1947)
TTITLE12=Four Knights - Lead Me To That Rock (Decca, 1947)
TTITLE13=Buddy Hawkins and the Songmasters - I'm Just a Dreamer (Commodore, 1948)
TTITLE14=Dixiaires - Your Red Wagon (Continental, 1948)
TTITLE15=Beale Street Boys - Wedding Bells (MGM, 1948)
TTITLE16=Four Knights - He'll Understand and Say Well Done (Decca, 1950)
TTITLE17=Shadows - You're Closer To My Heart (Than My Shadow) (Lee, 1950)
TTITLE18=Jubalaires - That Old Piano Roll Blues (Capitol, 1950)
TTITLE19=Jubalaires - The Old Pianola (Capitol, 1950)
TTITLE20=Billy Bunn and his Buddies - I Need a Shoulder To Cry On (RCA, 1951)
TTITLE21=Bette McLaurin and her Friends - I May Hate Myself in the Morning (Derby
TTITLE21=, 1952)
TTITLE22=Edna Gallmon Cooke [with the Radio Four] - Evening Sun (Republic, 1953
TTITLE22=)
TTITLE23=Doris Browne - The Game of Love (Gotham, 1953)
TTITLE24=Dundees - Never (Space, 1954)
TTITLE25=Hearts - Lonely Nights (Baton, 1955)
TTITLE26=Deep River Boys - I Still Love You (HMV, 1955)
EXTD=
EXTT0=
EXTT1=
EXTT2=
EXTT3=
EXTT4=
EXTT5=
EXTT6=
EXTT7=
EXTT8=
EXTT9=
EXTT10=
EXTT11=
EXTT12=
EXTT13=
EXTT14=
EXTT15=
EXTT16=
EXTT17=
EXTT18=
EXTT19=
EXTT20=
EXTT21=
EXTT22=
EXTT23=
EXTT24=
EXTT25=
EXTT26=
PLAYORDER=
